<svg width="190" height="73" viewBox="0 0 190 73" fill="none" xmlns="http://www.w3.org/2000/svg">
<path d="M43.9561 38.2773V54H39.5371V20.04H58.9463V23.4336H43.9561V34.8594H54.1611V38.2773H43.9561ZM88.4629 20.0645V54H84.0439V37.7891H68.3701V54H63.9512V20.04H68.3701V34.3711H84.0439V20.0645H88.4629Z" fill="black"/>
<path d="M156.501 17.32H159.101L145.901 55H143.301L156.501 17.32Z" fill="black"/>
<path d="M187.499 34.42L186.419 39.58L157.559 50.2L158.639 44.98L181.559 36.76L161.879 28.48L162.839 23.8L187.499 34.42Z" fill="black"/>
<path d="M98.4199 32.1064C99.2744 32.1064 100.1 31.8062 100.896 31.2056L101.54 32.0771C101.022 32.4531 100.595 32.7046 100.258 32.8315C99.7212 33.0317 98.9839 33.1318 98.0464 33.1318C97.1089 33.1318 96.2812 32.9121 95.5635 32.4727C94.8457 32.0332 94.2988 31.4204 93.9229 30.6343C93.5469 29.8433 93.3589 28.9326 93.3589 27.9023C93.3589 26.8721 93.5469 25.9639 93.9229 25.1777C94.2988 24.3916 94.8457 23.7788 95.5635 23.3394C96.2812 22.8999 97.1187 22.6802 98.0757 22.6802C98.9888 22.6802 99.6284 22.7485 99.9946 22.8853C100.366 23.022 100.644 23.1465 100.83 23.2588C101.015 23.3662 101.252 23.5249 101.54 23.7349L100.896 24.6064C100.1 24.0059 99.2744 23.7056 98.4199 23.7056H98.332C97.7852 23.7056 97.2725 23.8228 96.7939 24.0571C95.9102 24.4868 95.2925 25.2485 94.9409 26.3423C94.7749 26.8452 94.6919 27.3677 94.6919 27.9097C94.6919 28.4517 94.7725 28.9741 94.9336 29.4771C95.0996 29.9751 95.3291 30.4219 95.6221 30.8174C96.2715 31.6768 97.1748 32.1064 98.332 32.1064H98.4199ZM103.818 24.1523C104.228 23.6934 104.75 23.3345 105.385 23.0757C106.02 22.812 106.691 22.6802 107.399 22.6802C109.328 22.6802 110.744 23.3882 111.647 24.8042C112.18 25.6636 112.446 26.6792 112.446 27.8511C112.446 29.0376 112.17 30.0654 111.618 30.9346C111.032 31.8721 110.241 32.5117 109.245 32.8535C108.713 33.0391 108.09 33.1318 107.377 33.1318C106.669 33.1318 105.996 32.9976 105.356 32.729C104.716 32.4556 104.191 32.082 103.781 31.6084C102.946 30.627 102.529 29.3745 102.529 27.8511C102.529 26.3472 102.958 25.1143 103.818 24.1523ZM109.465 24.2622C108.918 23.8813 108.269 23.6909 107.517 23.6909C106.77 23.6909 106.12 23.874 105.568 24.2402C104.479 24.9678 103.935 26.1714 103.935 27.8511C103.935 29.5552 104.475 30.7808 105.554 31.5278C106.101 31.9087 106.704 32.0991 107.363 32.0991C108.579 32.0991 109.506 31.6743 110.146 30.8247C110.756 30.0093 111.062 29.0181 111.062 27.8511C111.062 26.2056 110.529 25.0093 109.465 24.2622ZM120.839 31.8062C119.775 32.6899 118.425 33.1318 116.789 33.1318C115.905 33.1318 115.007 33.0562 114.094 32.9048V22.9512C115.124 22.7705 115.971 22.6802 116.635 22.6802C118.588 22.6802 120.151 23.3271 121.323 24.6211C121.689 25.0361 121.979 25.5293 122.194 26.1006C122.409 26.6719 122.517 27.3262 122.517 28.0635C122.517 28.7959 122.363 29.4966 122.055 30.1655C121.752 30.8345 121.347 31.3813 120.839 31.8062ZM115.419 23.8301L115.412 31.9746C115.861 32.0625 116.345 32.1064 116.862 32.1064C117.951 32.1064 118.92 31.7573 119.77 31.0591C120.18 30.7271 120.51 30.2925 120.759 29.7554C121.013 29.2134 121.14 28.6445 121.14 28.0488C121.14 26.4521 120.48 25.2339 119.162 24.394C118.425 23.9302 117.629 23.6982 116.774 23.6982C116.252 23.6982 115.8 23.7422 115.419 23.8301ZM125.498 28.2832V31.9746H129.995V33H124.172V22.812H129.995V23.8301H125.498V27.2578H128.559V28.2832H125.498ZM106.125 40.812H107.355L103.979 51H102.88L100.419 43.5732L97.9585 51H96.8599L93.4907 40.812H94.7944L97.4458 49.1836L100.104 40.812H100.815L103.466 49.1836L106.125 40.812ZM109.472 42.1523C109.882 41.6934 110.405 41.3345 111.04 41.0757C111.674 40.812 112.346 40.6802 113.054 40.6802C114.982 40.6802 116.398 41.3882 117.302 42.8042C117.834 43.6636 118.1 44.6792 118.1 45.8511C118.1 47.0376 117.824 48.0654 117.272 48.9346C116.687 49.8721 115.896 50.5117 114.899 50.8535C114.367 51.0391 113.745 51.1318 113.032 51.1318C112.324 51.1318 111.65 50.9976 111.01 50.729C110.371 50.4556 109.846 50.082 109.436 49.6084C108.601 48.627 108.183 47.3745 108.183 45.8511C108.183 44.3472 108.613 43.1143 109.472 42.1523ZM115.119 42.2622C114.572 41.8813 113.923 41.6909 113.171 41.6909C112.424 41.6909 111.774 41.874 111.223 42.2402C110.134 42.9678 109.589 44.1714 109.589 45.8511C109.589 47.5552 110.129 48.7808 111.208 49.5278C111.755 49.9087 112.358 50.0991 113.017 50.0991C114.233 50.0991 115.161 49.6743 115.8 48.8247C116.411 48.0093 116.716 47.0181 116.716 45.8511C116.716 44.2056 116.184 43.0093 115.119 42.2622ZM126.333 51H124.86L121.074 46.4004V51H119.748V40.9512C120.661 40.7705 121.442 40.6802 122.092 40.6802C123.225 40.6802 124.111 40.9414 124.75 41.4639C125.39 41.9814 125.71 42.6431 125.71 43.4487C125.71 44.2544 125.422 44.9233 124.846 45.4556C124.27 45.9878 123.496 46.2954 122.524 46.3784L126.333 51ZM122.026 41.6982C121.635 41.6982 121.318 41.7422 121.074 41.8301V45.375H121.257C123.288 45.375 124.304 44.75 124.304 43.5C124.304 42.9678 124.077 42.5332 123.623 42.1963C123.164 41.8643 122.631 41.6982 122.026 41.6982ZM128.735 51H127.409V40.812H128.735V45.9243L132.47 40.812H133.847L130.156 45.8657L134.169 51H132.624L128.735 46.0269V51ZM135.415 49.147C135.551 49.2446 135.676 49.3398 135.788 49.4326C135.905 49.5254 136.037 49.6133 136.184 49.6963C136.33 49.7744 136.481 49.8428 136.638 49.9014C136.979 50.0381 137.363 50.1064 137.788 50.1064C138.5 50.1064 138.991 49.9331 139.26 49.5864C139.489 49.2886 139.604 48.9956 139.604 48.7075C139.604 48.4146 139.575 48.1851 139.516 48.019C139.404 47.731 139.179 47.46 138.842 47.2061C138.701 47.1084 138.532 47.0034 138.337 46.8911L137.136 46.2979C136.687 46.0537 136.345 45.8169 136.11 45.5874C135.876 45.3579 135.7 45.1455 135.583 44.9502C135.324 44.5156 135.195 43.9517 135.195 43.2583C135.195 42.5649 135.446 41.9619 135.949 41.4492C136.452 40.9365 137.106 40.6802 137.912 40.6802C138.425 40.6802 138.884 40.7461 139.289 40.8779C139.699 41.0098 140.024 41.1685 140.263 41.354L139.985 42.3647C139.404 41.9155 138.745 41.6909 138.007 41.6909C137.543 41.6909 137.18 41.8447 136.916 42.1523C136.657 42.46 136.528 42.8555 136.528 43.3389C136.528 43.5586 136.564 43.7588 136.638 43.9395C136.76 44.2617 137.014 44.5498 137.399 44.8037C137.551 44.9111 137.761 45.0234 138.029 45.1406L139.179 45.7266C139.384 45.8389 139.565 45.9512 139.721 46.0635C139.882 46.1709 140.041 46.3027 140.197 46.459C140.69 46.9521 140.937 47.5894 140.937 48.3706C140.937 49.147 140.671 49.8013 140.139 50.3335C139.606 50.8657 138.913 51.1318 138.059 51.1318C137.121 51.1318 136.35 50.9658 135.744 50.6338C135.417 50.458 135.158 50.3042 134.968 50.1724L135.415 49.147Z" fill="black"/>
<path d="M33.4591 29.02L10.4191 37.24L30.2791 45.52L29.3191 50.2L4.59906 39.58L5.61906 34.42L34.5391 23.8L33.4591 29.02Z" fill="black"/>
</svg>
